<svg width="70" height="70" viewBox="0 0 70 70" fill="none" xmlns="http://www.w3.org/2000/svg">
<g clip-path="url(#clip0_492_825)">
<path d="M34.7838 26.0537C32.6716 26.0537 30.9594 24.4631 30.9594 22.5009C30.9594 24.4631 29.2471 26.0537 27.135 26.0537C25.0228 26.0537 23.3106 24.4631 23.3106 22.5009C23.3106 24.4631 21.5984 26.0537 19.4862 26.0537C17.374 26.0537 15.6618 24.4631 15.6618 22.5009C15.6618 24.4631 13.9495 26.0537 11.8374 26.0537C9.72542 26.0537 8.01318 24.4631 8.01318 22.5009V16.6805L34.7836 0.897461L61.5547 16.6805V22.5009C61.5547 24.4631 59.8424 26.0537 57.7302 26.0537C55.6181 26.0537 53.9058 24.4631 53.9058 22.5009C53.9058 24.4631 52.1936 26.0537 50.0814 26.0537C47.9692 26.0537 46.257 24.4631 46.257 22.5009C46.257 24.4631 44.5448 26.0537 42.4326 26.0537C40.3205 26.0537 38.6082 24.4631 38.6082 22.5009C38.6082 24.4631 36.896 26.0537 34.7838 26.0537ZM34.7838 26.0537L34.7835 38.3898M34.7835 68.9196V42.6747M29.2616 68.9194H40.3043M5.00812 50.4879V33.9912H0.972168V68.6987H5.00812V54.4514H18.6145V68.6987H22.881V50.4879H5.00812ZM64.5583 50.4879V33.9912H68.5942V68.6987H64.5583V54.4514H50.9519V68.6987H46.6854V50.4879H64.5583ZM22.2435 38.3901H47.3234V42.6752H22.2435V38.3901Z" stroke="#E6B17E" stroke-width="2" stroke-miterlimit="10" stroke-linecap="round" stroke-linejoin="round"/>
</g>
<defs>
<clipPath id="clip0_492_825">
<rect width="70" height="70" fill="white"/>
</clipPath>
</defs>
</svg>
