<svg width="70" height="70" viewBox="0 0 70 70" fill="none" xmlns="http://www.w3.org/2000/svg">
<path d="M34.071 61.6987C34.4319 62.18 34.3335 62.869 33.8522 63.23C33.2616 63.6784 32.6382 64.094 32.0038 64.4987C27.3116 67.4628 22.2038 68.8956 17.5007 68.9065C11.4741 68.9065 6.13662 66.5331 3.23818 61.9503C-0.929006 55.355 1.19287 45.8394 8.37881 38.8065C9.83349 37.3737 11.496 36.0612 13.3335 34.8909C15.7179 33.3925 18.2226 32.255 20.8038 31.5112C22.2804 31.0847 23.7569 30.7784 25.2116 30.6253C27.4976 30.3628 29.7288 30.4394 31.8397 30.844C33.021 31.0628 34.2022 31.4019 35.3179 31.8722C36.5319 32.3644 37.6804 33.0097 38.7194 33.7972C39.7147 34.5519 40.1522 35.7659 39.8569 36.98C39.5726 38.1722 38.6319 39.0472 37.4179 39.2659C36.8819 39.3753 36.3241 39.4737 35.7663 39.605C35.2194 39.7253 34.6726 39.8565 34.1366 40.0097C33.4804 40.1847 32.8569 40.3706 32.2335 40.5784C30.0241 41.3112 27.8585 42.2847 25.7913 43.455C25.3647 43.7612 24.7632 43.7284 24.3804 43.3347C23.9538 42.9081 23.9538 42.219 24.3804 41.7925C24.4569 41.7159 24.621 41.6065 24.7194 41.5519C26.8851 40.3269 29.1929 39.2878 31.5554 38.5003C32.2335 38.2815 32.8897 38.0847 33.5679 37.8987C34.1257 37.7456 34.7163 37.5925 35.296 37.4722C35.8647 37.3409 36.4335 37.2315 37.0132 37.1222C37.5382 37.0347 37.6804 36.6409 37.7241 36.4769C37.7569 36.3456 37.8226 35.8862 37.3851 35.5581C36.4991 34.8909 35.5257 34.3331 34.4757 33.9175C33.4804 33.5019 32.4632 33.2065 31.4132 33.0206C29.4991 32.6487 27.4976 32.5831 25.4304 32.8237C24.1069 32.9659 22.7397 33.2394 21.3944 33.644C19.0101 34.3331 16.6913 35.3831 14.4819 36.7722C12.7757 37.855 11.2335 39.08 9.88818 40.4034C3.44599 46.7144 1.46631 55.1034 5.06474 60.8128C9.57099 67.955 21.121 68.7972 30.8116 62.6831C31.4022 62.3222 31.971 61.9284 32.5069 61.5237C32.9882 61.1628 33.6772 61.2612 34.0382 61.7425L34.071 61.6987ZM42.9085 41.3769C42.1866 40.8519 41.2788 40.655 40.4257 40.8409C40.1851 40.8956 39.8569 40.9722 39.5179 41.0487C39.0585 41.1581 38.5772 41.2784 38.2491 41.3331C37.4069 41.4753 36.6194 41.6394 35.8757 41.8144C29.2476 43.3456 23.1007 46.6597 18.1132 51.3956L11.2226 57.9362H11.0366C10.971 57.8925 10.9601 57.794 11.0038 57.7394L12.7976 55.2128C15.2476 51.7565 18.1679 48.7487 21.471 46.2659C21.9522 45.905 22.0507 45.2159 21.6897 44.7347C21.3288 44.2534 20.6397 44.155 20.1585 44.5159C16.6804 47.13 13.6069 50.3019 11.0257 53.944L9.23193 56.4706C8.48818 57.5206 8.73974 58.9862 9.78974 59.73C10.1944 60.0144 10.6647 60.1675 11.1351 60.1675C11.7476 60.1675 12.3382 59.9269 12.7429 59.5222L19.6335 52.9815C24.3476 48.519 30.1335 45.3909 36.4007 43.9472C37.1116 43.7722 37.8335 43.63 38.6319 43.4878C38.9929 43.4222 39.5397 43.2909 40.0538 43.1706C40.371 43.094 40.6663 43.0175 40.9069 42.9737C41.1694 42.919 41.4319 42.9737 41.6507 43.1378C41.771 43.2253 41.9897 43.4331 42.0226 43.794C42.1976 45.5331 42.0116 47.3815 41.4757 49.2737C40.6335 52.3253 38.8835 55.355 36.4335 58.0237C36.0288 58.4722 36.0507 59.1612 36.4991 59.5659C36.9476 59.9706 37.6366 59.9487 38.0413 59.5003C40.7319 56.58 42.646 53.244 43.5866 49.8534C44.1882 47.7097 44.396 45.5987 44.1991 43.5862C44.1226 42.7003 43.6632 41.9019 42.9413 41.3659L42.9085 41.3769ZM64.1601 23.8222C58.8554 15.8269 50.5429 11.244 42.9851 12.1409C42.1101 12.2394 41.3116 12.7206 40.8085 13.4425C40.2944 14.1753 40.1194 15.0831 40.3272 15.9362C40.3819 16.1878 40.4694 16.5269 40.5679 16.8878C40.6882 17.3253 40.8085 17.7956 40.8632 18.1019C42.3179 25.6706 45.9601 32.5612 51.3851 38.019L58.0788 44.7565C58.0788 44.7565 58.1116 44.9315 58.1116 44.9425C58.0569 45.019 57.9694 45.0409 57.8929 44.9862L55.3226 43.2581C47.1522 37.7237 41.4101 29.6956 39.1679 20.6394L39.1022 20.3769C38.9929 19.9065 38.8835 19.4472 38.7851 18.9659C38.5554 17.8394 37.7679 16.9753 36.6632 16.6472C36.1054 16.4831 35.5257 16.4831 35.0007 16.6253C31.2382 5.92842 22.2694 -0.546575 13.7054 1.46593C4.31006 3.66436 -0.994631 15.4878 1.89287 27.8144C2.65849 31.0409 3.88349 34.0159 5.55693 36.6628C5.76474 36.9909 6.11474 37.1769 6.48662 37.1769C6.68349 37.1769 6.89131 37.1222 7.06631 37.0128C7.58037 36.6847 7.73349 36.0175 7.40537 35.5034C5.86318 33.0753 4.72568 30.319 4.02568 27.3331C1.41162 16.1659 5.98349 5.52374 14.1976 3.59874C21.7007 1.8378 29.9476 8.1378 33.1851 17.9925C33.0866 18.1347 32.9991 18.2878 32.9007 18.43C32.8022 18.594 32.6929 18.7472 32.5944 18.9112C32.4851 19.0972 32.3866 19.2831 32.2882 19.469C32.2007 19.6331 32.1022 19.7972 32.0257 19.9722C31.9272 20.169 31.8397 20.3769 31.7522 20.5847C31.6757 20.7487 31.5991 20.9237 31.5335 21.0878C31.446 21.3065 31.3694 21.5253 31.2929 21.755C31.2382 21.93 31.1726 22.094 31.1179 22.2581C31.0413 22.4987 30.9757 22.7394 30.9101 22.98C30.8663 23.144 30.8116 23.3081 30.7788 23.4722C30.7132 23.7347 30.6694 23.9972 30.6147 24.2597C30.5819 24.4237 30.5491 24.5769 30.5163 24.73C30.4726 25.0253 30.4288 25.3206 30.396 25.6269C30.3741 25.769 30.3522 25.9003 30.3413 26.0425C30.2976 26.48 30.2647 26.9284 30.2538 27.3878C30.2319 27.9894 30.7022 28.5034 31.3038 28.5144C31.9163 28.5472 32.4194 28.0659 32.4304 27.4644C32.5397 24.2269 33.4585 21.3284 35.0663 19.0972L35.1866 18.9659C35.4163 18.7362 35.7335 18.6487 36.0507 18.7472C36.2366 18.8019 36.5538 18.955 36.6413 19.4034C36.7397 19.8956 36.8601 20.3769 36.9694 20.869L37.0351 21.1534C39.4085 30.7456 45.4679 39.2331 54.0866 45.0737L56.6569 46.8019C57.7288 47.5237 59.1507 47.2612 59.8944 46.1894C60.146 45.8175 60.2882 45.3472 60.2882 44.8769C60.2882 44.2534 60.0476 43.6628 59.6101 43.2362L52.9163 36.4987C47.7976 31.3581 44.3632 24.8612 42.9851 17.719C42.9194 17.369 42.7772 16.855 42.6569 16.3519C42.5694 16.0237 42.4929 15.7175 42.4382 15.4659C42.3835 15.2144 42.4382 14.9409 42.5804 14.7222C42.6679 14.5909 42.8757 14.3722 43.2257 14.3394C49.8647 13.5409 57.5429 17.8503 62.3226 25.0581C68.6444 34.6065 68.0757 46.1784 61.0319 50.8378C57.1601 53.3972 51.9757 53.4409 46.8022 50.9362C46.2554 50.6737 45.5991 50.9034 45.3366 51.4503C45.0741 51.9972 45.3038 52.6534 45.8507 52.9159C48.7054 54.294 51.5929 54.9831 54.3163 54.9831C57.2038 54.9831 59.9163 54.2065 62.246 52.6644C70.2851 47.3378 71.1491 34.4097 64.1491 23.844L64.1601 23.8222ZM15.0397 10.0956L16.9319 12.6769C20.1585 17.194 22.4554 22.3565 23.5819 27.6065C23.7132 28.1972 24.2929 28.569 24.8835 28.4487C25.4741 28.3175 25.846 27.7378 25.7257 27.1472C24.5444 21.6128 22.1163 16.1659 18.7257 11.4081L16.921 8.88155C16.5601 8.36749 16.0241 8.02842 15.4007 7.92999C14.7772 7.83155 14.1647 7.97374 13.6616 8.33467C13.0491 8.77217 12.6772 9.48311 12.6772 10.2487C12.6772 10.5987 12.7429 10.9269 12.8851 11.2222L16.8335 19.8628C18.0804 22.5972 18.9663 25.4628 19.4913 28.3722C19.5897 28.8972 20.0491 29.269 20.5632 29.269C20.6288 29.269 20.6944 29.269 20.7601 29.2472C21.3507 29.1378 21.7554 28.569 21.646 27.9784C21.0991 24.894 20.1476 21.8534 18.8351 18.944L14.8757 10.2487C14.8757 10.2487 14.8757 10.1612 14.9413 10.1175L15.0507 10.0847L15.0397 10.0956Z" fill="#E6B17E"/>
</svg>
