<svg width="70" height="70" viewBox="0 0 70 70" fill="none" xmlns="http://www.w3.org/2000/svg">
<g clip-path="url(#clip0_492_837)">
<path d="M65.5888 58.5911H55.6876C55.1212 58.5911 54.6622 59.0502 54.6622 59.6165C54.6622 60.1828 55.1212 60.6419 55.6876 60.6419H64.5634V61.2204L49.6329 64.0558H19.704L4.77344 61.2204V60.6419H8.8504C8.85204 60.6419 8.85368 60.6422 8.85519 60.6422C8.85642 60.6422 8.85779 60.6419 8.85902 60.6419H12.5534C12.5547 60.6419 12.5558 60.6422 12.557 60.6422C12.5589 60.6422 12.561 60.6419 12.5629 60.6419H24.8562C24.8569 60.6419 24.8576 60.6421 24.8584 60.6421C24.8591 60.6421 24.8597 60.6419 24.8603 60.6419H28.5237C28.5248 60.6419 28.5259 60.6422 28.527 60.6422C28.5281 60.6422 28.5293 60.6419 28.5304 60.6419H40.8064C40.8077 60.6419 40.8087 60.6422 40.8098 60.6422C40.8109 60.6422 40.812 60.6419 40.813 60.6419H51.8798C52.4463 60.6419 52.9052 60.1828 52.9052 59.6165C52.9052 59.0502 52.4463 58.5911 51.8798 58.5911H45.2659C46.4905 57.8129 47.6334 56.9016 48.6608 55.8748C50.1438 54.3911 51.3613 52.713 52.2918 50.8988C53.5884 51.4269 54.9614 51.695 56.3847 51.695C62.3901 51.695 67.2758 46.8087 67.2758 40.8026C67.2758 34.7972 62.3901 29.9116 56.3847 29.9116C55.734 29.9116 55.0892 29.9705 54.4556 30.0841V29.4975C54.4556 28.185 53.3879 27.1172 52.0755 27.1172H47.2259C46.6595 27.1172 46.2005 27.5763 46.2005 28.1426C46.2005 28.7089 46.6595 29.168 47.2259 29.168H52.0755C52.257 29.168 52.4048 29.3158 52.4048 29.4975V31.2406H16.9304V29.4975C16.9304 29.3158 17.0782 29.168 17.2599 29.168H43.4169C43.9834 29.168 44.4423 28.7089 44.4423 28.1426C44.4423 27.5763 43.9834 27.1172 43.4169 27.1172H17.2599C15.9474 27.1172 14.8796 28.185 14.8796 29.4975V41.8815C14.8796 43.428 15.0605 44.9613 15.4129 46.4506C13.744 45.953 11.7553 46.344 9.94074 47.5855C9.47329 47.9053 9.35353 48.5434 9.67332 49.0108C9.99324 49.4781 10.6314 49.5978 11.0987 49.2781C12.2879 48.4645 13.5359 48.1451 14.5679 48.3518L10.833 53.9398C10.5182 54.4107 10.6448 55.0475 11.1156 55.3621C11.2906 55.4791 11.4887 55.5352 11.6845 55.5352C12.0154 55.5352 12.3403 55.3752 12.5379 55.0795L16.2738 49.4896C16.6613 50.0648 16.8736 50.8174 16.8836 51.6946C16.8836 51.695 16.8836 51.6953 16.8836 51.6957C16.8836 51.6976 16.8837 51.6995 16.8837 51.7015C16.8975 53.0561 16.4242 54.5213 15.5513 55.8272C15.0536 56.5719 14.4652 57.2105 13.7988 57.7279C13.3368 58.0897 12.8515 58.3791 12.3542 58.5911H9.11495C9.0779 58.569 9.04099 58.5467 9.00421 58.5218C7.297 57.3816 7.18899 54.4327 8.75825 51.8084C9.04892 51.3223 8.8906 50.6926 8.40456 50.4019C7.9188 50.1116 7.28893 50.2696 6.99827 50.7558C5.9979 52.4285 5.50926 54.2923 5.62247 56.0039C5.68672 56.975 5.94089 57.8501 6.35925 58.591H3.74805C3.18162 58.591 2.72266 59.0501 2.72266 59.6164V62.0691C2.72266 62.5617 3.07293 62.9846 3.55678 63.0765L18.6355 65.9401V68.9747C18.6355 69.541 19.0945 70.0001 19.6609 70.0001H49.6746C50.241 70.0001 50.7 69.541 50.7 68.9747V65.9403L65.7801 63.0765C66.2639 62.9846 66.6142 62.5616 66.6142 62.0691V59.6164C66.6142 59.0502 66.1551 58.5911 65.5888 58.5911ZM54.4555 41.8812V37.0299C55.0497 36.7248 55.7069 36.563 56.3847 36.563C58.7225 36.563 60.6244 38.4649 60.6244 40.8026C60.6244 43.1404 58.7225 45.0423 56.3847 45.0423C55.6398 45.0423 54.9227 44.8488 54.2857 44.4841C54.3975 43.6279 54.4555 42.7591 54.4555 41.8812ZM53.8963 46.5809C54.6759 46.9175 55.5181 47.0932 56.3847 47.0932C59.8533 47.0932 62.6752 44.2713 62.6752 40.8028C62.6752 37.3342 59.8533 34.5123 56.3847 34.5123C55.723 34.5123 55.0739 34.6158 54.4556 34.815V32.2766C54.4556 32.273 54.4562 32.2696 54.4562 32.266C54.4562 32.2625 54.4556 32.2591 54.4556 32.2555V32.175C55.0851 32.0344 55.7312 31.9624 56.3849 31.9624C61.2593 31.9624 65.2251 35.928 65.2251 40.8026C65.2251 45.6779 61.2593 49.6442 56.3849 49.6442C55.2543 49.6442 54.1646 49.4336 53.1333 49.0238C53.4405 48.2288 53.6946 47.4129 53.8963 46.5809ZM16.9304 33.2914H52.4048V36.4477C52.4048 36.4488 52.4048 36.45 52.4048 36.4511V41.8813C52.4048 46.6192 50.5601 51.0739 47.2107 54.4246C45.3551 56.2791 43.0822 57.7163 40.6301 58.5911H28.708C28.3773 58.4734 28.0482 58.3468 27.7232 58.2083C28.4756 57.0254 28.7623 55.7094 28.5147 54.4551C28.5144 54.4535 28.5143 54.452 28.514 54.4503C28.5136 54.4484 28.5129 54.4465 28.5126 54.4446C28.1858 52.8128 27.0328 51.4703 25.2653 50.6639C23.6096 49.9085 21.5861 49.713 19.5671 50.1139C19.3835 50.1504 19.2015 50.1921 19.0211 50.2379C17.6524 47.6793 16.9304 44.8077 16.9304 41.8815V33.2914ZM17.2566 56.9666C18.2058 55.5464 18.7787 53.9538 18.9066 52.4105C19.2506 52.2945 19.6044 52.1973 19.9669 52.1251C22.5759 51.6073 25.0915 52.3923 26.0946 53.8858L19.5048 55.1957C18.9493 55.3062 18.5885 55.8458 18.6988 56.4013C18.7959 56.8893 19.2242 57.227 19.7036 57.227C19.7697 57.227 19.8371 57.2205 19.9045 57.207L26.4985 55.8961C26.367 56.5707 25.991 57.2469 25.3888 57.8682C25.3871 57.8698 25.3856 57.8716 25.3841 57.8732C25.133 58.1309 24.849 58.3709 24.5397 58.5909H15.9181C16.4096 58.1062 16.8579 57.5633 17.2566 56.9666ZM48.6492 67.9496H20.6862V66.1066H48.6492V67.9496Z" fill="#E6B17E"/>
<path d="M37.3383 20.501C37.3194 20.5129 37.3041 20.5225 37.293 20.5295C37.3034 20.5229 37.3186 20.5133 37.3383 20.501Z" fill="#E6B17E"/>
<path d="M37.2935 20.5293C37.265 20.5472 37.2686 20.5449 37.2935 20.5293V20.5293Z" fill="#E6B17E"/>
<path d="M39.5574 11.1929C40.9382 9.88041 41.7335 8.06164 41.7335 6.10929C41.7335 3.67911 40.5033 1.45428 38.4427 0.157641C37.9635 -0.143962 37.3301 0.000140295 37.0287 0.479477C36.7271 0.958814 36.8712 1.59182 37.3506 1.89343C38.811 2.81231 39.6829 4.38827 39.6829 6.10916C39.6829 7.83004 38.811 9.406 37.3506 10.3249C36.7237 10.7181 36.7237 11.6661 37.3506 12.0607C38.811 12.9796 39.6829 14.5555 39.6829 16.2764C39.683 17.9974 38.8111 19.5735 37.3507 20.4924C37.3454 20.4957 37.342 20.4979 37.3373 20.5009C37.3417 20.4982 37.3459 20.4956 37.3507 20.4925C36.8714 20.7941 36.7273 21.4272 37.0289 21.9065C37.2237 22.2163 37.5569 22.386 37.8976 22.386C38.0842 22.386 38.2732 22.335 38.4427 22.2283C40.5033 20.9318 41.7335 18.7069 41.7335 16.2768C41.7335 14.3242 40.9381 12.5054 39.5574 11.1929ZM37.8856 20.1558C37.9098 20.1406 37.9128 20.1387 37.8856 20.1558V20.1558ZM37.752 20.24C37.7744 20.2258 37.7952 20.2128 37.8139 20.2011C37.796 20.2123 37.7759 20.225 37.752 20.24Z" fill="#E6B17E"/>
<path d="M45.6575 10.3256C45.1783 10.024 44.545 10.168 44.2436 10.6475C43.942 11.1267 44.0861 11.7598 44.5654 12.0614C46.0257 12.9803 46.8976 14.5564 46.8976 16.2773C46.8977 17.9979 46.0258 19.574 44.5655 20.4929C44.0862 20.7945 43.9421 21.4275 44.2437 21.9068C44.4385 22.2166 44.7717 22.3863 45.1124 22.3863C45.299 22.3863 45.488 22.3353 45.6575 22.2287C47.718 20.9322 48.9482 18.7072 48.9482 16.2772C48.9482 13.8471 47.718 11.6221 45.6575 10.3256Z" fill="#E6B17E"/>
<path d="M30.6341 10.3246C30.1549 10.023 29.5215 10.1671 29.2201 10.6465C28.9185 11.1258 29.0626 11.7588 29.542 12.0604C31.0024 12.9793 31.8743 14.5553 31.8743 16.2761C31.8744 17.997 31.0025 19.5731 29.5421 20.492C29.0628 20.7936 28.9187 21.4266 29.2203 21.906C29.4151 22.2158 29.7483 22.3854 30.089 22.3854C30.2756 22.3854 30.4646 22.3344 30.6341 22.2278C32.6947 20.9313 33.9249 18.7063 33.9249 16.2763C33.9249 13.8461 32.6947 11.6213 30.6341 10.3246Z" fill="#E6B17E"/>
</g>
<defs>
<clipPath id="clip0_492_837">
<rect width="70" height="70" fill="white"/>
</clipPath>
</defs>
</svg>
