<svg width="70" height="70" viewBox="0 0 70 70" fill="none" xmlns="http://www.w3.org/2000/svg">
<path d="M17.5 65.625H8.75V15.3125H18.5938V56.875C18.5938 57.1651 18.4785 57.4433 18.2734 57.6484C18.0683 57.8535 17.7901 57.9688 17.5 57.9688C17.2099 57.9688 16.9317 57.8535 16.7266 57.6484C16.5215 57.4433 16.4062 57.1651 16.4062 56.875V17.5H10.9375V63.4375H17.5C17.7901 63.4375 18.0683 63.5527 18.2734 63.7579C18.4785 63.963 18.5938 64.2412 18.5938 64.5312C18.5938 64.8213 18.4785 65.0995 18.2734 65.3046C18.0683 65.5098 17.7901 65.625 17.5 65.625Z" fill="#E6B17E"/>
<path d="M51.0891 65.625H8.75V55.7812H59.0625V57.6516C59.0596 59.7654 58.2186 61.7918 56.7239 63.2864C55.2293 64.7811 53.2029 65.6221 51.0891 65.625ZM10.9375 63.4375H51.0891C52.5694 63.4371 53.9935 62.8703 55.0693 61.8535C56.1452 60.8366 56.7912 59.4467 56.875 57.9688H10.9375V63.4375Z" fill="#E6B17E"/>
<path d="M50.3125 56.8754C50.0224 56.8754 49.7442 56.7602 49.5391 56.555C49.334 56.3499 49.2188 56.0717 49.2188 55.7816V49.9082H17.5C17.2099 49.9082 16.9317 49.793 16.7266 49.5879C16.5215 49.3827 16.4062 49.1045 16.4062 48.8145C16.4062 48.5244 16.5215 48.2462 16.7266 48.0411C16.9317 47.8359 17.2099 47.7207 17.5 47.7207H51.4062V55.7816C51.4062 56.0717 51.291 56.3499 51.0859 56.555C50.8808 56.7602 50.6026 56.8754 50.3125 56.8754Z" fill="#E6B17E"/>
<path d="M61.25 17.5H8.75V3.28125H48.125C51.606 3.28125 54.9444 4.66406 57.4058 7.12547C59.8672 9.58689 61.25 12.9253 61.25 16.4062V17.5ZM10.9375 15.3125H59.0625C58.7904 12.6052 57.5191 10.0965 55.4966 8.27633C53.4742 6.45613 50.8459 5.45511 48.125 5.46875H10.9375V15.3125Z" fill="#E6B17E"/>
<path d="M37.1875 25.1562H32.8125C30.4919 25.1562 28.2663 24.2344 26.6253 22.5934C24.9844 20.9525 24.0625 18.7269 24.0625 16.4062V15.3125H45.9375V16.4062C45.9375 18.7269 45.0156 20.9525 43.3747 22.5934C41.7337 24.2344 39.5081 25.1562 37.1875 25.1562ZM26.3375 17.5C26.5961 19.0299 27.3884 20.4187 28.5738 21.4198C29.7591 22.421 31.2609 22.9698 32.8125 22.9688H37.1875C38.7391 22.9698 40.2409 22.421 41.4262 21.4198C42.6116 20.4187 43.4039 19.0299 43.6625 17.5H26.3375Z" fill="#E6B17E"/>
<path d="M35.5469 49.2188C33.0821 49.2159 30.7191 48.2354 28.9762 46.4926C27.2333 44.7497 26.2529 42.3867 26.25 39.9219V31.7188H44.8438V39.9219C44.8409 42.3867 43.8604 44.7497 42.1176 46.4926C40.3747 48.2354 38.0117 49.2159 35.5469 49.2188ZM28.4375 33.9062V39.9219C28.4375 41.8074 29.1865 43.6157 30.5198 44.949C31.8531 46.2822 33.6614 47.0312 35.5469 47.0312C37.4324 47.0312 39.2407 46.2822 40.574 44.949C41.9072 43.6157 42.6562 41.8074 42.6562 39.9219V33.9062H28.4375Z" fill="#E6B17E"/>
<path d="M46.4844 41.5625H42.6562V33.9062H46.4844C47.4997 33.9062 48.4734 34.3096 49.1913 35.0275C49.9092 35.7454 50.3125 36.7191 50.3125 37.7344C50.3125 38.7497 49.9092 39.7234 49.1913 40.4413C48.4734 41.1592 47.4997 41.5625 46.4844 41.5625ZM44.8438 39.375H46.4844C46.9195 39.375 47.3368 39.2022 47.6445 38.8945C47.9522 38.5868 48.125 38.1695 48.125 37.7344C48.125 37.2993 47.9522 36.882 47.6445 36.5743C47.3368 36.2666 46.9195 36.0938 46.4844 36.0938H44.8438V39.375Z" fill="#E6B17E"/>
<path d="M35 28.4375C34.7099 28.4375 34.4317 28.3223 34.2266 28.1171C34.0215 27.912 33.9062 27.6338 33.9062 27.3438V24.0625C33.9062 23.7724 34.0215 23.4942 34.2266 23.2891C34.4317 23.084 34.7099 22.9688 35 22.9688C35.2901 22.9688 35.5683 23.084 35.7734 23.2891C35.9785 23.4942 36.0938 23.7724 36.0938 24.0625V27.3438C36.0938 27.6338 35.9785 27.912 35.7734 28.1171C35.5683 28.3223 35.2901 28.4375 35 28.4375Z" fill="#E6B17E"/>
<path d="M37.1875 37.4609H27.3438C27.0537 37.4609 26.7755 37.3457 26.5704 37.1406C26.3652 36.9355 26.25 36.6573 26.25 36.3672C26.25 36.0771 26.3652 35.7989 26.5704 35.5938C26.7755 35.3887 27.0537 35.2734 27.3438 35.2734H37.1875C37.4776 35.2734 37.7558 35.3887 37.9609 35.5938C38.166 35.7989 38.2812 36.0771 38.2812 36.3672C38.2812 36.6573 38.166 36.9355 37.9609 37.1406C37.7558 37.3457 37.4776 37.4609 37.1875 37.4609Z" fill="#E6B17E"/>
<path d="M38.2812 9.98633H9.84375C9.55367 9.98633 9.27547 9.87109 9.07035 9.66598C8.86523 9.46086 8.75 9.18266 8.75 8.89258C8.75 8.6025 8.86523 8.3243 9.07035 8.11918C9.27547 7.91406 9.55367 7.79883 9.84375 7.79883H38.2812C38.5713 7.79883 38.8495 7.91406 39.0546 8.11918C39.2598 8.3243 39.375 8.6025 39.375 8.89258C39.375 9.18266 39.2598 9.46086 39.0546 9.66598C38.8495 9.87109 38.5713 9.98633 38.2812 9.98633Z" fill="#E6B17E"/>
</svg>
